<?xml version="1.0" encoding="utf-8"?>
<!-- Generator: Adobe Illustrator 24.1.2, SVG Export Plug-In . SVG Version: 6.00 Build 0)  -->
<svg version="1.0" id="Capa_1" xmlns="http://www.w3.org/2000/svg" xmlns:xlink="http://www.w3.org/1999/xlink" x="0px" y="0px"
	 viewBox="0 0 325.74 321.78" style="enable-background:new 0 0 325.74 321.78;" xml:space="preserve">
<style type="text/css">
	.st0{fill:#333333;}
</style>
<g>
	<g>
		<path class="st0" d="M162.2,319.31c-42.15,0-81.78-16.42-111.59-46.22C20.8,243.28,4.38,203.65,4.38,161.5
			c0-42.15,16.42-81.78,46.22-111.59C80.41,20.1,120.04,3.68,162.2,3.68c5.84,0,11.8,0.33,17.7,0.99c1.49,0.17,2.83,0.98,3.67,2.22
			c0.84,1.24,1.1,2.79,0.7,4.24c-0.81,2.94-1.22,5.96-1.22,8.99c0,16.49,11.78,30.44,28.02,33.17c1.75,0.29,3.22,1.47,3.89,3.11
			c0.67,1.64,0.45,3.51-0.59,4.95c-4.17,5.76-6.38,12.58-6.38,19.7c0,18.55,15.09,33.65,33.65,33.65c6.8,0,13.35-2.02,18.94-5.84
			c1.59-1.08,3.64-1.19,5.33-0.27c1.69,0.92,2.72,2.7,2.68,4.62l-0.01,0.38c0,0.11-0.01,0.23-0.01,0.34
			c0,18.55,15.09,33.65,33.65,33.65c3.62,0,7.21-0.58,10.65-1.73c1.5-0.5,3.15-0.28,4.47,0.6c1.32,0.88,2.15,2.32,2.26,3.9
			c0.26,3.77,0.4,7.52,0.4,11.15c0,42.15-16.42,81.78-46.22,111.59C243.98,302.89,204.35,319.31,162.2,319.31z M162.2,13.93
			c-39.42,0-76.47,15.35-104.34,43.22C29.98,85.02,14.63,122.08,14.63,161.5s15.35,76.47,43.22,104.34
			c27.87,27.87,64.93,43.22,104.34,43.22c39.42,0,76.47-15.35,104.34-43.22c27.87-27.87,43.22-64.93,43.22-104.34
			c0-1.42-0.02-2.86-0.07-4.31c-2.46,0.43-4.96,0.64-7.47,0.64c-21.66,0-39.71-15.77-43.26-36.43c-5.43,2.34-11.3,3.55-17.32,3.55
			c-24.21,0-43.9-19.69-43.9-43.9c0-6.83,1.55-13.44,4.54-19.45c-17.45-6.01-29.48-22.45-29.48-41.48c0-1.93,0.13-3.86,0.38-5.78
			C169.5,14.07,165.83,13.93,162.2,13.93z"/>
	</g>
	<path class="st0" d="M77.47,169.05c-9.59,0-17.4-7.8-17.4-17.4c0-9.59,7.8-17.4,17.4-17.4c9.59,0,17.4,7.8,17.4,17.4
		C94.87,161.25,87.07,169.05,77.47,169.05z M77.47,144.5c-3.94,0-7.15,3.21-7.15,7.15c0,3.94,3.21,7.15,7.15,7.15
		c3.94,0,7.15-3.21,7.15-7.15C84.62,147.71,81.41,144.5,77.47,144.5z"/>
	<path class="st0" d="M140.03,91.93c-9.59,0-17.4-7.8-17.4-17.4c0-9.59,7.8-17.4,17.4-17.4c9.59,0,17.4,7.8,17.4,17.4
		C157.43,84.12,149.62,91.93,140.03,91.93z M140.03,67.38c-3.94,0-7.15,3.21-7.15,7.15c0,3.94,3.21,7.15,7.15,7.15
		c3.94,0,7.15-3.21,7.15-7.15C147.18,70.59,143.97,67.38,140.03,67.38z"/>
	<path class="st0" d="M115.48,244.54c-9.59,0-17.4-7.8-17.4-17.4s7.8-17.4,17.4-17.4c9.59,0,17.4,7.8,17.4,17.4
		S125.08,244.54,115.48,244.54z M115.48,219.99c-3.94,0-7.15,3.21-7.15,7.15s3.21,7.15,7.15,7.15c3.94,0,7.15-3.21,7.15-7.15
		S119.43,219.99,115.48,219.99z"/>
	<path class="st0" d="M162.2,169.05c-9.59,0-17.4-7.8-17.4-17.4c0-9.59,7.8-17.4,17.4-17.4c9.59,0,17.4,7.8,17.4,17.4
		C179.59,161.25,171.79,169.05,162.2,169.05z M162.2,144.5c-3.94,0-7.15,3.21-7.15,7.15c0,3.94,3.21,7.15,7.15,7.15
		c3.94,0,7.15-3.21,7.15-7.15C169.35,147.71,166.14,144.5,162.2,144.5z"/>
	<path class="st0" d="M220.61,232.27c-9.59,0-17.4-7.8-17.4-17.4c0-9.59,7.8-17.4,17.4-17.4s17.4,7.8,17.4,17.4
		C238.01,224.46,230.21,232.27,220.61,232.27z M220.61,207.72c-3.94,0-7.15,3.21-7.15,7.15c0,3.94,3.21,7.15,7.15,7.15
		c3.94,0,7.15-3.21,7.15-7.15C227.76,210.93,224.55,207.72,220.61,207.72z"/>
</g>
</svg>
