<?xml version="1.0" encoding="utf-8"?>
<!-- Generator: Adobe Illustrator 16.0.0, SVG Export Plug-In . SVG Version: 6.00 Build 0)  -->
<!DOCTYPE svg PUBLIC "-//W3C//DTD SVG 1.1//EN" "http://www.w3.org/Graphics/SVG/1.1/DTD/svg11.dtd">
<svg version="1.1" id="Warstwa_1" xmlns="http://www.w3.org/2000/svg" xmlns:xlink="http://www.w3.org/1999/xlink" x="0px" y="0px"
	 width="80px" height="80px" viewBox="0 0 80 80" enable-background="new 0 0 80 80" xml:space="preserve">
<g>
	<path fill="#FFFFFF" d="M79.688,35C79.688,34.999,79.688,34.999,79.688,35l-5.606-0.001c-0.391-2.683-1.087-5.267-2.06-7.712
		l4.853-2.802c-1.309-3.104-2.996-6.01-5.009-8.657l-4.852,2.802c-1.657-2.092-3.553-3.986-5.645-5.644l2.805-4.855
		c-2.647-2.011-5.552-3.702-8.657-5.009l-2.804,4.857C50.268,7.006,47.685,6.309,45,5.918V0.311l0,0C43.363,0.106,41.693,0,40,0
		c-1.694,0-3.362,0.106-5,0.311l0,0v5.607c-2.684,0.391-5.268,1.089-7.713,2.062l-2.805-4.857c-3.104,1.308-6.009,2.997-8.655,5.01
		l2.803,4.854c-2.092,1.659-3.986,3.552-5.644,5.644L8.13,15.827c-2.01,2.646-3.702,5.551-5.01,8.656l4.857,2.805
		C7.006,29.732,6.308,32.316,5.918,35H0.311C0.106,36.638,0,38.307,0,40s0.106,3.361,0.311,5h5.607
		c0.39,2.685,1.088,5.268,2.06,7.713l-4.856,2.805c1.308,3.104,2.997,6.01,5.009,8.656l4.855-2.805
		c1.658,2.092,3.551,3.987,5.643,5.643l-2.804,4.855c2.646,2.011,5.551,3.701,8.657,5.009l2.804-4.855
		c2.446,0.972,5.029,1.67,7.713,2.061v5.607C36.638,79.893,38.308,80,40,80c1.691,0,3.361-0.106,5-0.311l0,0v-5.608
		c2.683-0.391,5.268-1.089,7.713-2.061l2.804,4.856c3.105-1.307,6.011-2.997,8.657-5.009l-2.805-4.855
		c2.094-1.656,3.988-3.552,5.646-5.644l4.855,2.803c2.01-2.646,3.7-5.55,5.009-8.655l-4.857-2.805
		c0.973-2.445,1.671-5.027,2.061-7.712h5.608c0,0,0,0,0-0.001C79.894,43.361,80,41.693,80,40S79.892,36.638,79.688,35z
		 M69.096,51.023c-1.2,3.165-2.898,6.084-5.005,8.659c-1.319,1.612-2.796,3.089-4.409,4.408c-2.574,2.106-5.493,3.805-8.658,5.005
		c-1.925,0.729-3.938,1.273-6.023,1.61l0,0c-1.629,0.265-3.297,0.406-5,0.406c-1.703,0-3.373-0.142-5-0.406
		c-2.085-0.337-4.1-0.881-6.024-1.611c-3.165-1.198-6.084-2.897-8.66-5.004c-1.612-1.319-3.088-2.795-4.408-4.408
		c-2.106-2.573-3.803-5.494-5.003-8.659C10.175,49.1,9.63,47.086,9.293,45c-0.264-1.628-0.406-3.297-0.406-5s0.142-3.372,0.406-5
		c0.337-2.086,0.882-4.099,1.611-6.024c1.201-3.164,2.897-6.084,5.003-8.659c1.319-1.612,2.796-3.088,4.408-4.408
		c2.575-2.106,5.495-3.804,8.66-5.003c1.924-0.729,3.938-1.275,6.023-1.612l0,0c1.628-0.264,3.298-0.406,5.001-0.406
		c1.702,0,3.371,0.142,5,0.406c0,0,0,0,0.001,0c2.084,0.337,4.097,0.881,6.022,1.61c3.165,1.201,6.084,2.899,8.659,5.004
		c1.613,1.318,3.09,2.795,4.409,4.407c2.106,2.575,3.803,5.495,5.004,8.66c0.729,1.924,1.272,3.938,1.611,6.022c0,0,0,0,0,0.001
		c0.264,1.628,0.406,3.297,0.406,5s-0.143,3.372-0.406,5V45C70.369,47.085,69.823,49.1,69.096,51.023z"/>
	<g>
		<path fill="#FFFFFF" d="M23.696,40c0-8.079,5.875-14.783,13.587-16.077V18.43C26.559,19.767,18.261,28.914,18.261,40
			s8.298,20.233,19.022,21.57v-5.493C29.571,54.783,23.696,48.079,23.696,40z"/>
		<path fill="#FFFFFF" d="M42.717,18.43v5.493c6.828,1.145,12.213,6.533,13.358,13.359H45.805c-0.064,0.884-0.098,1.792-0.098,2.718
			c0,0.927,0.033,1.834,0.098,2.718h10.271c-1.146,6.826-6.53,12.215-13.358,13.36v5.492C53.44,60.233,61.739,51.086,61.739,40
			S53.44,19.767,42.717,18.43z"/>
	</g>
</g>
</svg>
