<?xml version="1.0" encoding="utf-8"?>
<!-- Generator: Adobe Illustrator 24.1.2, SVG Export Plug-In . SVG Version: 6.00 Build 0)  -->
<svg version="1.0" id="circle" xmlns="http://www.w3.org/2000/svg" xmlns:xlink="http://www.w3.org/1999/xlink" x="0px" y="0px"
	 viewBox="0 0 91.62 92.1" style="enable-background:new 0 0 91.62 92.1;" xml:space="preserve">
<style type="text/css">
	.st0{fill:#D7AB29;}
	.st1{fill:#2B2B2B;}
</style>
<g>
	<circle class="st0" cx="46.35" cy="47.1" r="35"/>
	<path class="st1" d="M33.23,51.47h15.69c0,0-4.75,4.75-5.66,5.66c-1.71,1.71-1.71,4.48,0,6.19c1.71,1.71,4.48,1.71,6.19,0
		l13.12-13.13c1.71-1.71,1.71-4.48,0-6.19L49.45,30.88c-1.71-1.71-4.48-1.71-6.19,0c-1.71,1.71-1.71,4.48,0,6.19
		c0.9,0.9,5.66,5.66,5.66,5.66H33.23c-2.42,0-4.38,1.96-4.37,4.38C28.85,49.51,30.81,51.47,33.23,51.47z"/>
</g>
</svg>
